<?xml version="1.0" encoding="utf-8"?>
<!-- Generator: Adobe Illustrator 26.0.1, SVG Export Plug-In . SVG Version: 6.00 Build 0)  -->
<svg version="1.1" id="Layer_1" xmlns="http://www.w3.org/2000/svg" xmlns:xlink="http://www.w3.org/1999/xlink" x="0px" y="0px"
	 viewBox="0 0 595.28 841.89" style="enable-background:new 0 0 595.28 841.89;" xml:space="preserve">
<style type="text/css">
	.st0{fill:#3C3C3B;}
	.st1{font-family:'Cherolina';}
	.st2{font-size:107.0368px;}
</style>
<polygon class="st0" points="215.48,274.8 208.53,268.11 208.53,187.4 209.91,188.73 215.48,194.09 223.08,201.38 225.04,203.28 
	225.97,204.18 236.47,214.27 237.62,215.37 240.17,217.82 246.97,224.35 252.16,229.34 255.32,232.37 257.47,234.44 266.72,243.33 
	267.97,244.53 270.46,246.92 278.47,254.62 281.27,257.31 285.59,261.47 288.96,264.71 295.82,271.3 299.46,274.8 300.72,276.01 
	309.96,284.89 304.05,290.56 299.46,294.98 295.82,298.48 288.96,305.07 288.91,305.11 281.27,312.46 278.47,315.15 273.78,319.66 
	267.97,325.24 266.72,324.04 262.16,319.66 257.47,315.15 252.16,310.06 247.02,305.11 246.97,305.07 237.62,296.08 236.47,294.98 
	231.88,290.56 225.97,284.89 223.08,282.1 216.74,276.01 "/>
<polygon points="441.28,178.83 441.28,259.55 439.28,261.47 435.91,264.71 426.73,273.53 425.41,274.8 424.16,276.01 414.91,284.89 
	412.18,287.51 409.02,290.56 404.41,294.98 397.65,301.49 393.92,305.07 393.88,305.11 383.42,315.16 383.1,315.47 378.73,319.66 
	372.92,325.25 368.54,329.46 363.61,334.2 362.43,335.33 354.01,343.43 351.93,345.42 348.47,348.75 341.45,355.51 339.46,357.42 
	333.34,363.3 330.95,365.6 324.91,371.4 320.45,375.69 318.21,377.84 310.35,385.39 309.96,385.77 303.07,392.39 299.46,395.86 
	295.82,399.36 288.96,405.95 287.93,406.94 281.27,413.35 278.47,416.04 272.79,421.49 267.97,426.13 266.72,427.33 135.79,556.29 
	135.79,319.66 136.2,319.66 135.79,319.28 135.79,290.86 136.1,290.56 135.79,290.56 135.79,174.18 193.98,174.18 193.98,416.52 
	194.48,416.04 203.96,406.94 204.98,405.95 208.53,402.55 215.47,395.86 219.1,392.39 223.08,388.56 225.97,385.77 234.23,377.84 
	236.47,375.68 237.62,374.58 246.97,365.59 249.35,363.3 252.16,360.6 257.47,355.51 264.49,348.75 266.72,346.62 267.97,345.42 
	278.46,335.33 279.64,334.2 281.27,332.63 288.96,325.24 294.77,319.66 295.82,318.65 299.46,315.15 309.91,305.11 309.96,305.06 
	310.35,304.67 320.45,294.97 324.91,290.69 325.03,290.56 330.93,284.89 339.46,276.7 340.17,276.01 341.43,274.8 351.93,264.71 
	354.01,262.72 355.3,261.47 362.43,254.62 368.54,248.75 370.45,246.92 372.93,244.53 383.1,234.76 383.42,234.44 385.59,232.37 
	393.91,224.36 397.65,220.78 400.72,217.82 404.41,214.27 412.18,206.8 414.91,204.18 415.85,203.28 425.41,194.09 426.73,192.82 
	430.98,188.73 435.91,184 "/>
<polygon class="st0" points="193.98,517.41 193.98,537.58 193.69,537.86 193.98,537.86 193.98,552.41 157.57,552.41 164.88,545.38 
	172.71,537.86 173.49,537.1 179.43,531.4 183.99,527.01 187.83,523.32 "/>
<path class="st0" d="M435.91,284.89l-5.9,5.67l-3.28,3.15l-1.32,1.27l-10.5,10.09l0.05,0.04h-0.09l-2.69,2.58l-7.77,7.47l-4.68,4.5
	l-2.09,2.01l-3.72,3.58l-9.32,8.95l-1.18,1.14l-0.33,0.31l-9.99,9.05l-4.56,4.39l-5.94,5.7l-0.78,0.76l-7.83,7.52l-7.31,7.03h36.41
	v65.8l0.14,0.13h-0.14v116.38h58.19V279.72L435.91,284.89z M383.1,355.55h-0.29l0.29-0.28V355.55z"/>
<path d="M137.28,549.31L137.28,549.31z"/>
<text transform="matrix(1 0 0 1 164.8197 674.5024)" class="st1 st2">L a m i</text>
</svg>
